<?xml version="1.0" standalone="no"?>
<!DOCTYPE svg PUBLIC "-//W3C//DTD SVG 20010904//EN"
 "http://www.w3.org/TR/2001/REC-SVG-20010904/DTD/svg10.dtd">
<svg version="1.0" xmlns="http://www.w3.org/2000/svg"
 width="300.000000pt" height="300.000000pt" viewBox="0 0 300.000000 300.000000"
 preserveAspectRatio="xMidYMid meet">
<metadata>
Created by potrace 1.11, written by Peter Selinger 2001-2013
</metadata>
<g transform="translate(0.000000,300.000000) scale(0.100000,-0.100000)"
fill="#000000" stroke="none">
<path d="M370 2319 c-58 -94 -106 -175 -108 -180 -2 -4 385 -7 860 -7 475 1
874 -1 888 -5 105 -23 150 -45 184 -90 31 -40 44 -105 35 -167 -21 -141 -131
-250 -373 -371 -48 -24 -106 -62 -128 -83 -36 -35 -40 -43 -35 -78 3 -21 23
-69 45 -106 52 -88 66 -134 59 -193 -8 -62 -30 -105 -80 -152 -58 -55 -157
-100 -272 -123 -11 -2 -31 -6 -45 -9 -71 -14 -304 -25 -321 -15 -8 5 53 189
200 604 116 327 211 599 211 603 0 8 -497 10 -503 2 -2 -2 -15 -38 -30 -79
-71 -206 -457 -1301 -475 -1348 -4 -11 79 -13 439 -11 244 1 471 5 504 9 33 5
83 11 110 14 79 9 114 16 213 42 371 97 559 282 539 532 -8 94 -14 117 -53
207 -50 113 -50 107 -2 130 125 57 326 187 393 252 142 140 195 280 166 437
-29 158 -129 260 -306 311 -138 41 -208 43 -1125 44 l-885 1 -105 -171z"/>
</g>
</svg>
